<!-- Generated by IcoMoon.io -->
<svg version="1.1" xmlns="http://www.w3.org/2000/svg" width="85" height="32" viewBox="0 0 85 32">
<title>logo</title>
<path fill="#444" d="M32.514 9.508c-0.586-0.607-1.214-0.977-1.647-0.977h-0.391v-0.337h0.326c0.151 0 1.929 0.072 2.102 0.072 0.282 0 1.104-0.072 1.278-0.072h0.346l8.245 8.992v-7.093c0-1.127-0.497-1.562-1.753-1.562h-0.368v-0.337h0.39c0.044 0 1.905 0.072 2.056 0.072 0.215 0 1.451-0.072 1.688-0.072h0.239l0.021 0.337c-1.148 0.087-1.452 0.391-1.452 1.388v11.213h-0.389l-9.847-10.733v8.077c0 1.694 0.39 2.15 1.819 2.15h0.368v0.362h-0.412c-0.303 0-1.796-0.072-2.142-0.072-0.195 0-1.582 0.072-1.885 0.072h-0.348v-0.362c1.453-0.131 1.756-0.37 1.756-1.411v-9.707z"></path>
<path fill="#444" d="M47.44 9.638c0-0.846-0.326-1.106-1.345-1.106h-0.324v-0.337h0.844c0.585 0 3.748 0.072 3.771 0.072 0.454 0 3.46-0.072 4.106-0.072h0.867l0.043 2.787h-0.336c-0.067-1.454-0.724-2.040-2.236-2.040h-3.028v4.927h2.616c1.017 0 1.579-0.478 1.73-1.499l0.386 0.022v3.89h-0.365c-0.172-1.216-0.799-1.693-2.313-1.693h-2.077v4.494c0 0.739 0.369 1.108 1.104 1.108h2.162c1.404 0 2.422-0.63 3.028-1.933h0.39l-0.91 2.73c-0.629 0-3.611-0.072-4.605-0.072-0.671 0-3.9 0.050-4.636 0.072h-0.564v-0.362h0.347c1.019-0.022 1.345-0.283 1.345-1.129v-9.859z"></path>
<path fill="#444" d="M68.247 21.158h-0.607l-2.471-6.747-2.537 6.747h-0.585l-4.227-11.324c-0.325-0.868-0.629-1.215-1.193-1.323v-0.317h0.369c0.238 0 1.431 0.072 1.713 0.072 0.238 0 1.473-0.072 1.733-0.072h0.391v0.337c-0.628 0.023-0.889 0.195-0.889 0.543 0 0.196 0.066 0.478 0.174 0.781l2.97 8.026 1.691-4.577-1.105-3.080c-0.477-1.323-0.889-1.67-1.931-1.692v-0.338h0.347c0.304 0 1.864 0.072 2.233 0.072 0.303 0 1.864-0.072 2.21-0.072h0.52v0.337h-0.52c-0.715 0-1.062 0.174-1.062 0.543 0 0.196 0.087 0.543 0.217 0.889l2.883 7.983 2.276-6.768c0.282-0.868 0.411-1.432 0.411-1.779 0-0.607-0.302-0.868-0.974-0.868h-0.391v-0.337h0.109c0.303 0 1.061 0.072 1.517 0.072 0.216 0 1.060-0.072 1.471-0.072h0.152v0.337c-0.543 0.152-0.823 0.543-1.255 1.866l-3.641 10.759z"></path>
<path fill="#444" d="M73.244 18.018c0.346 0.844 0.648 1.234 1.231 1.667 0.734 0.563 1.707 0.844 2.787 0.844 1.858 0 3.111-0.974 3.111-2.382 0-1.039-0.605-1.603-2.843-2.663-2.169-1.040-2.709-1.559-3.162-1.992-0.669-0.715-0.949-1.364-0.949-2.23 0-1.992 1.618-3.311 4.068-3.311 0.737 0 1.54 0.108 2.407 0.324 0.347 0.086 0.694 0.129 0.89 0.129 0.173 0 0.26-0.043 0.325-0.187h0.373l0.043 2.728h-0.307c-0.195-0.65-0.325-0.931-0.607-1.286-0.608-0.714-1.562-1.104-2.787-1.104-1.555 0-2.572 0.736-2.572 1.841 0 0.952 0.584 1.493 2.659 2.446 2.658 1.234 4.268 2.339 4.268 4.374 0 2.338-1.914 3.916-4.743 3.916-0.713 0-1.426-0.086-2.29-0.28-0.302-0.065-0.626-0.108-0.777-0.108-0.26 0-0.345 0.043-0.517 0.243h-0.368l-0.043-0.303c-0.173-0.996-0.368-1.927-0.521-2.559l0.326-0.108z"></path>
<path fill="#444" d="M6.2 13.208c-0.325 0-0.635 0.074-0.909 0.207-0.703 0.339-1.189 1.059-1.189 1.892 0 1.159 0.94 2.098 2.098 2.098s2.099-0.939 2.099-2.098-0.939-2.099-2.099-2.099z"></path>
<path fill="#444" d="M15.244 1.317c-7.726 0-13.99 6.263-13.99 13.99s6.264 13.99 13.99 13.99 13.99-6.264 13.99-13.99c0-7.726-6.264-13.99-13.99-13.99zM8.335 19.503l-0.008-1.051c-0.476 0.476-1.3 1.051-2.273 1.051-2.318 0-4.051-1.879-4.051-4.197s1.879-4.197 4.197-4.197c0.362 0 0.714 0.045 1.049 0.132 1.811 0.466 3.149 2.109 3.149 4.065 0 0.003-0.001 0.008-0.001 0.011l0.024 4.186h-2.086zM15.244 19.503c-2.308 0-4.18-1.863-4.196-4.167l-0.049-7.365h2.123l0.013 3.952c0.621-0.485 1.341-0.814 2.11-0.814 2.318 0 4.197 1.879 4.197 4.197s-1.88 4.197-4.197 4.197zM24.266 19.503c-2.319 0-4.198-1.879-4.198-4.197s1.879-4.197 4.198-4.197c1.99 0 3.655 1.385 4.086 3.244h-2.217c-0.347-0.68-1.054-1.146-1.869-1.146-1.159 0-2.099 0.94-2.099 2.099s0.94 2.098 2.099 2.098c0.817 0 1.526-0.468 1.872-1.15l2.22-0.020c-0.422 1.872-2.094 3.269-4.092 3.269z"></path>
<path fill="#444" d="M17.343 15.306c0 1.159-0.939 2.098-2.098 2.098s-2.098-0.939-2.098-2.098c0-1.159 0.939-2.098 2.098-2.098s2.098 0.939 2.098 2.098z"></path>
</svg>
