<svg id="workspace" xmlns="http://www.w3.org/2000/svg" xmlns:xlink="http://www.w3.org/1999/xlink" style="text-rendering: geometricprecision;cursor: auto;background-color: white;"><defs><linearGradient x1="0" y1="0.5" x2="1" y2="0.5" id="linearGradientSkkpc47771c"><stop offset="0%" stop-color="#109e92"></stop><stop offset="100%" stop-color="#109e92"></stop></linearGradient><linearGradient x1="0" y1="0.5" x2="1" y2="0.5" id="linearGradientSkkpc47771l"><stop offset="0%" stop-color="#33364d"></stop><stop offset="100%" stop-color="#33364d"></stop></linearGradient><linearGradient x1="0" y1="0.5" x2="1" y2="0.5" id="linearGradientSkkpc47771u"><stop offset="0%" stop-color="#109e92"></stop><stop offset="100%" stop-color="#109e92"></stop></linearGradient><linearGradient x1="0" y1="0.5" x2="1" y2="0.5" id="linearGradientSkkpc477723"><stop offset="0%" stop-color="#33364d"></stop><stop offset="100%" stop-color="#33364d"></stop></linearGradient><linearGradient x1="0" y1="0.5" x2="1" y2="0.5" id="linearGradientSkkpc47772c"><stop offset="0%" stop-color="#109e92"></stop><stop offset="100%" stop-color="#109e92"></stop></linearGradient><linearGradient x1="0" y1="0.5" x2="1" y2="0.5" id="linearGradientSkkpc47772l"><stop offset="0%" stop-color="#33364d"></stop><stop offset="100%" stop-color="#33364d"></stop></linearGradient><linearGradient x1="0" y1="0.5" x2="1" y2="0.5" id="linearGradientSkkpc47772u"><stop offset="0%" stop-color="#33364d"></stop><stop offset="100%" stop-color="#33364d"></stop></linearGradient><linearGradient x1="0" y1="0.5" x2="1" y2="0.5" id="linearGradientSkkpc477733"><stop offset="0%" stop-color="#109e92"></stop><stop offset="100%" stop-color="#109e92"></stop></linearGradient><linearGradient x1="0" y1="0.5" x2="1" y2="0.5" id="linearGradientSkkpc47773d"><stop offset="0%" stop-color="#109e92"></stop><stop offset="100%" stop-color="#109e92"></stop></linearGradient><linearGradient x1="0" y1="0.5" x2="1" y2="0.5" id="linearGradientSkkpc47773g"><stop offset="0%" stop-color="#33364d"></stop><stop offset="100%" stop-color="#33364d"></stop></linearGradient><linearGradient x1="0" y1="0.5" x2="1" y2="0.5" id="linearGradientSkkpc47773j"><stop offset="0%" stop-color="#109e92"></stop><stop offset="100%" stop-color="#109e92"></stop></linearGradient><linearGradient x1="0" y1="0.5" x2="1" y2="0.5" id="linearGradientSkkpc47773m"><stop offset="0%" stop-color="#33364d"></stop><stop offset="100%" stop-color="#33364d"></stop></linearGradient><linearGradient x1="0" y1="0.5" x2="1" y2="0.5" id="linearGradientSkkpc47773p"><stop offset="0%" stop-color="#109e92"></stop><stop offset="100%" stop-color="#109e92"></stop></linearGradient><linearGradient x1="0" y1="0.5" x2="1" y2="0.5" id="linearGradientSkkpc47773s"><stop offset="0%" stop-color="#33364d"></stop><stop offset="100%" stop-color="#33364d"></stop></linearGradient><linearGradient x1="0" y1="0.5" x2="1" y2="0.5" id="linearGradientSkkpc47773v"><stop offset="0%" stop-color="#33364d"></stop><stop offset="100%" stop-color="#33364d"></stop></linearGradient><linearGradient x1="0" y1="0.5" x2="1" y2="0.5" id="linearGradientSkkpc47773y"><stop offset="0%" stop-color="#109e92"></stop><stop offset="100%" stop-color="#109e92"></stop></linearGradient><linearGradient x1="0" y1="0.5" x2="1" y2="0.5" id="linearGradientSkkpc477744"><stop offset="0%" stop-color="#109e92"></stop><stop offset="100%" stop-color="#109e92"></stop></linearGradient><linearGradient x1="0" y1="0.5" x2="1" y2="0.5" id="linearGradientSkkpc477747"><stop offset="0%" stop-color="#33364d"></stop><stop offset="100%" stop-color="#33364d"></stop></linearGradient><linearGradient x1="0" y1="0.5" x2="1" y2="0.5" id="linearGradientSkkpc47774a"><stop offset="0%" stop-color="#109e92"></stop><stop offset="100%" stop-color="#109e92"></stop></linearGradient><linearGradient x1="0" y1="0.5" x2="1" y2="0.5" id="linearGradientSkkpc47774d"><stop offset="0%" stop-color="#33364d"></stop><stop offset="100%" stop-color="#33364d"></stop></linearGradient><linearGradient x1="0" y1="0.5" x2="1" y2="0.5" id="linearGradientSkkpc47774g"><stop offset="0%" stop-color="#109e92"></stop><stop offset="100%" stop-color="#109e92"></stop></linearGradient><linearGradient x1="0" y1="0.5" x2="1" y2="0.5" id="linearGradientSkkpc47774j"><stop offset="0%" stop-color="#33364d"></stop><stop offset="100%" stop-color="#33364d"></stop></linearGradient><linearGradient x1="0" y1="0.5" x2="1" y2="0.5" id="linearGradientSkkpc47774m"><stop offset="0%" stop-color="#33364d"></stop><stop offset="100%" stop-color="#33364d"></stop></linearGradient><linearGradient x1="0" y1="0.5" x2="1" y2="0.5" id="linearGradientSkkpc47774p"><stop offset="0%" stop-color="#109e92"></stop><stop offset="100%" stop-color="#109e92"></stop></linearGradient><linearGradient x1="0" y1="0.5" x2="1" y2="0.5" id="linearGradientSkkpc47774v"><stop offset="0%" stop-color="#109e92"></stop><stop offset="100%" stop-color="#109e92"></stop></linearGradient><linearGradient x1="0" y1="0.5" x2="1" y2="0.5" id="linearGradientSkkpc47774y"><stop offset="0%" stop-color="#33364d"></stop><stop offset="100%" stop-color="#33364d"></stop></linearGradient><linearGradient x1="0" y1="0.5" x2="1" y2="0.5" id="linearGradientSkkpc477751"><stop offset="0%" stop-color="#109e92"></stop><stop offset="100%" stop-color="#109e92"></stop></linearGradient><linearGradient x1="0" y1="0.5" x2="1" y2="0.5" id="linearGradientSkkpc477754"><stop offset="0%" stop-color="#33364d"></stop><stop offset="100%" stop-color="#33364d"></stop></linearGradient><linearGradient x1="0" y1="0.5" x2="1" y2="0.5" id="linearGradientSkkpc477757"><stop offset="0%" stop-color="#109e92"></stop><stop offset="100%" stop-color="#109e92"></stop></linearGradient><linearGradient x1="0" y1="0.5" x2="1" y2="0.5" id="linearGradientSkkpc47775a"><stop offset="0%" stop-color="#33364d"></stop><stop offset="100%" stop-color="#33364d"></stop></linearGradient><linearGradient x1="0" y1="0.5" x2="1" y2="0.5" id="linearGradientSkkpc47775d"><stop offset="0%" stop-color="#33364d"></stop><stop offset="100%" stop-color="#33364d"></stop></linearGradient><linearGradient x1="0" y1="0.5" x2="1" y2="0.5" id="linearGradientSkkpc47775g"><stop offset="0%" stop-color="#109e92"></stop><stop offset="100%" stop-color="#109e92"></stop></linearGradient><linearGradient x1="0" y1="0.5" x2="1" y2="0.5" id="linearGradientSkkpc47775j"><stop offset="0%" stop-color="#109e92"></stop><stop offset="100%" stop-color="#109e92"></stop></linearGradient><linearGradient x1="0" y1="0.5" x2="1" y2="0.5" id="linearGradientSkkpc47775m"><stop offset="0%" stop-color="#33364d"></stop><stop offset="100%" stop-color="#33364d"></stop></linearGradient><linearGradient x1="0" y1="0.5" x2="1" y2="0.5" id="linearGradientSkkpc47775p"><stop offset="0%" stop-color="#109e92"></stop><stop offset="100%" stop-color="#109e92"></stop></linearGradient><linearGradient x1="0" y1="0.5" x2="1" y2="0.5" id="linearGradientSkkpc47775s"><stop offset="0%" stop-color="#33364d"></stop><stop offset="100%" stop-color="#33364d"></stop></linearGradient><linearGradient x1="0" y1="0.5" x2="1" y2="0.5" id="linearGradientSkkpc47775v"><stop offset="0%" stop-color="#109e92"></stop><stop offset="100%" stop-color="#109e92"></stop></linearGradient><linearGradient x1="0" y1="0.5" x2="1" y2="0.5" id="linearGradientSkkpc47775y"><stop offset="0%" stop-color="#33364d"></stop><stop offset="100%" stop-color="#33364d"></stop></linearGradient><linearGradient x1="0" y1="0.5" x2="1" y2="0.5" id="linearGradientSkkpc477761"><stop offset="0%" stop-color="#33364d"></stop><stop offset="100%" stop-color="#33364d"></stop></linearGradient><linearGradient x1="0" y1="0.5" x2="1" y2="0.5" id="linearGradientSkkpc477764"><stop offset="0%" stop-color="#109e92"></stop><stop offset="100%" stop-color="#109e92"></stop></linearGradient><linearGradient x1="0" y1="0.5" x2="1" y2="0.5" id="linearGradientSkkpc477767"><stop offset="0%" stop-color="#109e92"></stop><stop offset="100%" stop-color="#109e92"></stop></linearGradient><linearGradient x1="0" y1="0.5" x2="1" y2="0.5" id="linearGradientSkkpc47776a"><stop offset="0%" stop-color="#33364d"></stop><stop offset="100%" stop-color="#33364d"></stop></linearGradient><linearGradient x1="0" y1="0.5" x2="1" y2="0.5" id="linearGradientSkkpc47776d"><stop offset="0%" stop-color="#109e92"></stop><stop offset="100%" stop-color="#109e92"></stop></linearGradient><linearGradient x1="0" y1="0.5" x2="1" y2="0.5" id="linearGradientSkkpc47776g"><stop offset="0%" stop-color="#33364d"></stop><stop offset="100%" stop-color="#33364d"></stop></linearGradient><linearGradient x1="0" y1="0.5" x2="1" y2="0.5" id="linearGradientSkkpc47776j"><stop offset="0%" stop-color="#109e92"></stop><stop offset="100%" stop-color="#109e92"></stop></linearGradient><linearGradient x1="0" y1="0.5" x2="1" y2="0.5" id="linearGradientSkkpc47776m"><stop offset="0%" stop-color="#33364d"></stop><stop offset="100%" stop-color="#33364d"></stop></linearGradient><linearGradient x1="0" y1="0.5" x2="1" y2="0.5" id="linearGradientSkkpc47776p"><stop offset="0%" stop-color="#33364d"></stop><stop offset="100%" stop-color="#33364d"></stop></linearGradient><linearGradient x1="0" y1="0.5" x2="1" y2="0.5" id="linearGradientSkkpc47776s"><stop offset="0%" stop-color="#109e92"></stop><stop offset="100%" stop-color="#109e92"></stop></linearGradient><linearGradient x1="0" y1="0.5" x2="1" y2="0.5" id="linearGradientSkkpc47776v"><stop offset="0%" stop-color="#109e92"></stop><stop offset="100%" stop-color="#109e92"></stop></linearGradient><linearGradient x1="0" y1="0.5" x2="1" y2="0.5" id="linearGradientSkkpc47776y"><stop offset="0%" stop-color="#33364d"></stop><stop offset="100%" stop-color="#33364d"></stop></linearGradient><linearGradient x1="0" y1="0.5" x2="1" y2="0.5" id="linearGradientSkkpc477771"><stop offset="0%" stop-color="#109e92"></stop><stop offset="100%" stop-color="#109e92"></stop></linearGradient><linearGradient x1="0" y1="0.5" x2="1" y2="0.5" id="linearGradientSkkpc477774"><stop offset="0%" stop-color="#33364d"></stop><stop offset="100%" stop-color="#33364d"></stop></linearGradient><linearGradient x1="0" y1="0.5" x2="1" y2="0.5" id="linearGradientSkkpc477777"><stop offset="0%" stop-color="#109e92"></stop><stop offset="100%" stop-color="#109e92"></stop></linearGradient><linearGradient x1="0" y1="0.5" x2="1" y2="0.5" id="linearGradientSkkpc47777a"><stop offset="0%" stop-color="#33364d"></stop><stop offset="100%" stop-color="#33364d"></stop></linearGradient><linearGradient x1="0" y1="0.5" x2="1" y2="0.5" id="linearGradientSkkpc47777d"><stop offset="0%" stop-color="#33364d"></stop><stop offset="100%" stop-color="#33364d"></stop></linearGradient><linearGradient x1="0" y1="0.5" x2="1" y2="0.5" id="linearGradientSkkpc47777g"><stop offset="0%" stop-color="#109e92"></stop><stop offset="100%" stop-color="#109e92"></stop></linearGradient><linearGradient x1="0" y1="0.5" x2="1" y2="0.5" id="linearGradientSkkpc47777j"><stop offset="0%" stop-color="#109e92"></stop><stop offset="100%" stop-color="#109e92"></stop></linearGradient><linearGradient x1="0" y1="0.5" x2="1" y2="0.5" id="linearGradientSkkpc47777m"><stop offset="0%" stop-color="#33364d"></stop><stop offset="100%" stop-color="#33364d"></stop></linearGradient><linearGradient x1="0" y1="0.5" x2="1" y2="0.5" id="linearGradientSkkpc47777p"><stop offset="0%" stop-color="#109e92"></stop><stop offset="100%" stop-color="#109e92"></stop></linearGradient><linearGradient x1="0" y1="0.5" x2="1" y2="0.5" id="linearGradientSkkpc47777s"><stop offset="0%" stop-color="#33364d"></stop><stop offset="100%" stop-color="#33364d"></stop></linearGradient><linearGradient x1="0" y1="0.5" x2="1" y2="0.5" id="linearGradientSkkpc47777v"><stop offset="0%" stop-color="#109e92"></stop><stop offset="100%" stop-color="#109e92"></stop></linearGradient><linearGradient x1="0" y1="0.5" x2="1" y2="0.5" id="linearGradientSkkpc47777y"><stop offset="0%" stop-color="#33364d"></stop><stop offset="100%" stop-color="#33364d"></stop></linearGradient><linearGradient x1="0" y1="0.5" x2="1" y2="0.5" id="linearGradientSkkpc477781"><stop offset="0%" stop-color="#33364d"></stop><stop offset="100%" stop-color="#33364d"></stop></linearGradient><linearGradient x1="0" y1="0.5" x2="1" y2="0.5" id="linearGradientSkkpc477784"><stop offset="0%" stop-color="#109e92"></stop><stop offset="100%" stop-color="#109e92"></stop></linearGradient><linearGradient x1="0" y1="0.5" x2="1" y2="0.5" id="linearGradientSkkpc477787"><stop offset="0%" stop-color="#109e92"></stop><stop offset="100%" stop-color="#109e92"></stop></linearGradient><linearGradient x1="0" y1="0.5" x2="1" y2="0.5" id="linearGradientSkkpc47778a"><stop offset="0%" stop-color="#33364d"></stop><stop offset="100%" stop-color="#33364d"></stop></linearGradient><linearGradient x1="0" y1="0.5" x2="1" y2="0.5" id="linearGradientSkkpc47778d"><stop offset="0%" stop-color="#109e92"></stop><stop offset="100%" stop-color="#109e92"></stop></linearGradient><linearGradient x1="0" y1="0.5" x2="1" y2="0.5" id="linearGradientSkkpc47778g"><stop offset="0%" stop-color="#33364d"></stop><stop offset="100%" stop-color="#33364d"></stop></linearGradient><linearGradient x1="0" y1="0.5" x2="1" y2="0.5" id="linearGradientSkkpc47778j"><stop offset="0%" stop-color="#109e92"></stop><stop offset="100%" stop-color="#109e92"></stop></linearGradient><linearGradient x1="0" y1="0.5" x2="1" y2="0.5" id="linearGradientSkkpc47778m"><stop offset="0%" stop-color="#33364d"></stop><stop offset="100%" stop-color="#33364d"></stop></linearGradient><linearGradient x1="0" y1="0.5" x2="1" y2="0.5" id="linearGradientSkkpc47778p"><stop offset="0%" stop-color="#33364d"></stop><stop offset="100%" stop-color="#33364d"></stop></linearGradient><linearGradient x1="0" y1="0.5" x2="1" y2="0.5" id="linearGradientSkkpc47778s"><stop offset="0%" stop-color="#109e92"></stop><stop offset="100%" stop-color="#109e92"></stop></linearGradient><linearGradient x1="0" y1="0.5" x2="1" y2="0.5" id="linearGradientSkkpc47778v"><stop offset="0%" stop-color="#109e92"></stop><stop offset="100%" stop-color="#109e92"></stop></linearGradient><linearGradient x1="0" y1="0.5" x2="1" y2="0.5" id="linearGradientSkkpc47778y"><stop offset="0%" stop-color="#33364d"></stop><stop offset="100%" stop-color="#33364d"></stop></linearGradient><linearGradient x1="0" y1="0.5" x2="1" y2="0.5" id="linearGradientSkkpc477791"><stop offset="0%" stop-color="#109e92"></stop><stop offset="100%" stop-color="#109e92"></stop></linearGradient><linearGradient x1="0" y1="0.5" x2="1" y2="0.5" id="linearGradientSkkpc477794"><stop offset="0%" stop-color="#33364d"></stop><stop offset="100%" stop-color="#33364d"></stop></linearGradient><linearGradient x1="0" y1="0.5" x2="1" y2="0.5" id="linearGradientSkkpc477797"><stop offset="0%" stop-color="#109e92"></stop><stop offset="100%" stop-color="#109e92"></stop></linearGradient><linearGradient x1="0" y1="0.5" x2="1" y2="0.5" id="linearGradientSkkpc47779a"><stop offset="0%" stop-color="#33364d"></stop><stop offset="100%" stop-color="#33364d"></stop></linearGradient><linearGradient x1="0" y1="0.5" x2="1" y2="0.5" id="linearGradientSkkpc47779d"><stop offset="0%" stop-color="#33364d"></stop><stop offset="100%" stop-color="#33364d"></stop></linearGradient><linearGradient x1="0" y1="0.5" x2="1" y2="0.5" id="linearGradientSkkpc47779g"><stop offset="0%" stop-color="#109e92"></stop><stop offset="100%" stop-color="#109e92"></stop></linearGradient><linearGradient x1="0" y1="0.5" x2="1" y2="0.5" id="linearGradientSkkpc47779j"><stop offset="0%" stop-color="#109e92"></stop><stop offset="100%" stop-color="#109e92"></stop></linearGradient><linearGradient x1="0" y1="0.5" x2="1" y2="0.5" id="linearGradientSkkpc47779m"><stop offset="0%" stop-color="#33364d"></stop><stop offset="100%" stop-color="#33364d"></stop></linearGradient><linearGradient x1="0" y1="0.5" x2="1" y2="0.5" id="linearGradientSkkpc47779p"><stop offset="0%" stop-color="#109e92"></stop><stop offset="100%" stop-color="#109e92"></stop></linearGradient><linearGradient x1="0" y1="0.5" x2="1" y2="0.5" id="linearGradientSkkpc47779s"><stop offset="0%" stop-color="#33364d"></stop><stop offset="100%" stop-color="#33364d"></stop></linearGradient><linearGradient x1="0" y1="0.5" x2="1" y2="0.5" id="linearGradientSkkpc47779v"><stop offset="0%" stop-color="#109e92"></stop><stop offset="100%" stop-color="#109e92"></stop></linearGradient><linearGradient x1="0" y1="0.5" x2="1" y2="0.5" id="linearGradientSkkpc47779y"><stop offset="0%" stop-color="#33364d"></stop><stop offset="100%" stop-color="#33364d"></stop></linearGradient><linearGradient x1="0" y1="0.5" x2="1" y2="0.5" id="linearGradientSkkpc4777a1"><stop offset="0%" stop-color="#33364d"></stop><stop offset="100%" stop-color="#33364d"></stop></linearGradient><linearGradient x1="0" y1="0.5" x2="1" y2="0.5" id="linearGradientSkkpc4777a4"><stop offset="0%" stop-color="#109e92"></stop><stop offset="100%" stop-color="#109e92"></stop></linearGradient><linearGradient x1="0" y1="0.5" x2="1" y2="0.5" id="linearGradientSkkpc4777ag"><stop offset="0%" stop-color="#33364d"></stop><stop offset="100%" stop-color="#33364d"></stop></linearGradient><linearGradient x1="0" y1="0.5" x2="1" y2="0.5" id="linearGradientSkkpc4777aj"><stop offset="0%" stop-color="#109e92"></stop><stop offset="100%" stop-color="#109e92"></stop></linearGradient><linearGradient x1="0" y1="0.5" x2="1" y2="0.5" id="linearGradientSkkpc4777am"><stop offset="0%" stop-color="#33364d"></stop><stop offset="100%" stop-color="#33364d"></stop></linearGradient><linearGradient x1="0" y1="0.5" x2="1" y2="0.5" id="linearGradientSkkpc4777ap"><stop offset="0%" stop-color="#109e92"></stop><stop offset="100%" stop-color="#109e92"></stop></linearGradient><linearGradient x1="0" y1="0.5" x2="1" y2="0.5" id="linearGradientSkkpc4777as"><stop offset="0%" stop-color="#33364d"></stop><stop offset="100%" stop-color="#33364d"></stop></linearGradient><linearGradient x1="0" y1="0.5" x2="1" y2="0.5" id="linearGradientSkkpc4777av"><stop offset="0%" stop-color="#109e92"></stop><stop offset="100%" stop-color="#109e92"></stop></linearGradient><linearGradient x1="0" y1="0.5" x2="1" y2="0.5" id="linearGradientSkkpc4777ay"><stop offset="0%" stop-color="#33364d"></stop><stop offset="100%" stop-color="#33364d"></stop></linearGradient><linearGradient x1="0" y1="0.5" x2="1" y2="0.5" id="linearGradientSkkpc4777b1"><stop offset="0%" stop-color="#33364d"></stop><stop offset="100%" stop-color="#33364d"></stop></linearGradient><linearGradient x1="0" y1="0.5" x2="1" y2="0.5" id="linearGradientSkkpc4777b4"><stop offset="0%" stop-color="#109e92"></stop><stop offset="100%" stop-color="#109e92"></stop></linearGradient><linearGradient x1="0" y1="0.5" x2="1" y2="0.5" id="linearGradientSkkpc4777b7"><stop offset="0%" stop-color="#109e92"></stop><stop offset="100%" stop-color="#109e92"></stop></linearGradient><linearGradient x1="0" y1="0.5" x2="1" y2="0.5" id="linearGradientSkkpc4777ba"><stop offset="0%" stop-color="#33364d"></stop><stop offset="100%" stop-color="#33364d"></stop></linearGradient><linearGradient x1="0" y1="0.5" x2="1" y2="0.5" id="linearGradientSkkpc4777bd"><stop offset="0%" stop-color="#109e92"></stop><stop offset="100%" stop-color="#109e92"></stop></linearGradient><linearGradient x1="0" y1="0.5" x2="1" y2="0.5" id="linearGradientSkkpc4777bg"><stop offset="0%" stop-color="#33364d"></stop><stop offset="100%" stop-color="#33364d"></stop></linearGradient><linearGradient x1="0" y1="0.5" x2="1" y2="0.5" id="linearGradientSkkpc4777bj"><stop offset="0%" stop-color="#109e92"></stop><stop offset="100%" stop-color="#109e92"></stop></linearGradient><linearGradient x1="0" y1="0.5" x2="1" y2="0.5" id="linearGradientSkkpc4777bm"><stop offset="0%" stop-color="#33364d"></stop><stop offset="100%" stop-color="#33364d"></stop></linearGradient><linearGradient x1="0" y1="0.5" x2="1" y2="0.5" id="linearGradientSkkpc4777bp"><stop offset="0%" stop-color="#33364d"></stop><stop offset="100%" stop-color="#33364d"></stop></linearGradient><linearGradient x1="0" y1="0.5" x2="1" y2="0.5" id="linearGradientSkkpc4777bs"><stop offset="0%" stop-color="#109e92"></stop><stop offset="100%" stop-color="#109e92"></stop></linearGradient></defs><g style="cursor: move; opacity: 1;" class="svg-clip svg-visible" transform="matrix(0.2533,0,0,0.2533,699.8342,349.0173)"><rect x="0" y="0" width="554" height="292" fill="none" class="svg-hitbox" style=""></rect><svg width="554.9032289391143" height="292.04092119557384" viewBox="127,120.30000000000001,554.9032289391143,292.04092119557384"><desc>Created with Snap</desc><defs></defs><g></g><g></g><g><path d="M661.8,226L637,215.3c-12.6-5.4-27.4,0.4-32.8,13l-36.9,85.7L269.8,185.9c-4.2-34.1-33.4-60.6-68.6-60.6   c-38.1,0-69.2,31-69.2,69.1c0,38.1,31,69.2,69.2,69.2c12.3,0,23.9-3.2,33.9-8.9l322.4,138.9l27.1,11.7c10.8,4.7,23.3,1,30-8.2   c1.1-1.5,2-3.1,2.7-4.8l11.1-25.7l0.2-0.4l46.3-107.5C680.3,246.2,674.4,231.5,661.8,226z M201.2,231.9c-2.4,0-4.7-0.2-7-0.7   c-17.3-3.3-30.4-18.5-30.4-36.8c0-20.6,16.8-37.4,37.4-37.4c11.2,0,21.2,4.9,28,12.7c5.8,6.6,9.4,15.3,9.4,24.8   C238.6,215.1,221.8,231.9,201.2,231.9z" stroke="none" fill="url('#linearGradientSkkpc4777b7')" style=""></path></g></svg></g><g class="svg-clip svg-visible" transform="matrix(0.2533,0,0,0.2533,762.1496,353.002)" style="cursor: move; opacity: 1;"><rect x="0" y="0" width="212" height="150" fill="none" class="svg-hitbox" style=""></rect><svg width="212.44092561920087" height="150.54092561920095" viewBox="375.6295371903995,135.22953719039953,212.44092561920087,150.54092561920095"><desc>Created with Snap</desc><defs></defs><g></g><g></g><g><path d="M545.3,279.8L387.9,212c-6.1-2.6-8.9-9.7-6.3-15.8l21-48.7c2.6-6.1,9.7-8.9,15.8-6.3l157.4,67.8   c6.1,2.6,8.9,9.7,6.3,15.8l-21,48.7C558.5,279.6,551.4,282.4,545.3,279.8z" stroke="none" fill="url('#linearGradientSkkpc4777ba')" style=""></path></g></svg></g><g class="svg-clip svg-visible" transform="matrix(0.2533,0,0,0.2533,847.1287,415.1496)" style="cursor: move; opacity: 1;"><rect x="0" y="0" width="149" height="212" fill="none" class="svg-hitbox" style=""></rect><svg width="149.7267128096006" height="212.3409256192009" viewBox="711.5437499999999,379.4295371903995,149.7267128096006,212.3409256192009"><desc>Created with Snap</desc><defs></defs><g></g><g></g><g><path d="M717.5,549.4l67.1-157.7c2.6-6.1,9.7-8.9,15.7-6.3l48.7,20.7c6.1,2.6,8.9,9.7,6.3,15.7l-67.1,157.7   c-2.6,6.1-9.7,8.9-15.7,6.3l-48.7-20.7C717.8,562.5,714.9,555.4,717.5,549.4z" stroke="none" fill="url('#linearGradientSkkpc4777bd')" style=""></path></g></svg></g><g class="svg-clip svg-visible" transform="matrix(0.2533,0,0,0.2533,770.1496,500.1287)" style="cursor: move; opacity: 1;"><rect x="0" y="0" width="212" height="149" fill="none" class="svg-hitbox" style=""></rect><svg width="212.50938689603333" height="149.20938689603315" viewBox="406.64530655198325,716.8453065519834,212.50938689603333,149.20938689603315"><desc>Created with Snap</desc><defs></defs><g></g><g></g><g><path d="M448.8,722.8l158,66.4c6.1,2.6,9,9.6,6.4,15.7l-20.5,48.8c-2.6,6.1-9.6,9-15.7,6.4l-158-66.4   c-6.1-2.6-9-9.6-6.4-15.7l20.5-48.8C435.6,723.1,442.7,720.2,448.8,722.8z" stroke="none" fill="url('#linearGradientSkkpc4777bg')" style=""></path></g></svg></g><g class="svg-clip svg-visible" transform="matrix(0.2533,0,0,0.2533,700.2554,424.1496)" style="cursor: move; opacity: 1;"><rect x="0" y="0" width="148" height="212" fill="none" class="svg-hitbox" style=""></rect><svg width="148.650627141879" height="212.49495694412644" viewBox="131.40252152793687,413.0025215279368,148.650627141879,212.49495694412644"><desc>Created with Snap</desc><defs></defs><g></g><g></g><g><path d="M274.1,454.8l-65.7,158.3c-2.5,6.1-9.6,9-15.7,6.5l-48.9-20.3c-6.1-2.5-9-9.6-6.5-15.7L203,425.4   c2.5-6.1,9.6-9,15.7-6.5l48.9,20.3C273.8,441.7,276.7,448.7,274.1,454.8z" stroke="none" fill="url('#linearGradientSkkpc4777bj')" style=""></path></g></svg></g><g class="svg-clip svg-visible" transform="matrix(0.2533,0,0,0.2533,815.5239,351.4543)" style="cursor: move; opacity: 1;"><rect x="0" y="0" width="288" height="557" fill="none" class="svg-hitbox" style=""></rect><svg width="288.13347179358686" height="557.6875000000005" viewBox="585.1665282064137,128,288.13347179358686,557.6875000000005"><desc>Created with Snap</desc><defs></defs><g></g><g></g><g><path d="M798.8,133c-38.1,0-69.2,31-69.2,69.1c0,13.9,4.1,26.8,11.2,37.6L603.7,562l-11.5,27.1    c-1.5,3.6-2.2,7.4-2,11.1c0,0.2,0,0.5,0.1,0.7c0,0.3,0,0.5,0.1,0.8c0,0,0,0.1,0,0.1c0.1,0.4,0.1,0.9,0.2,1.3    c0.1,0.4,0.1,0.8,0.2,1.2c0,0.2,0.1,0.4,0.2,0.6c0.1,0.4,0.2,0.7,0.3,1c0.1,0.4,0.2,0.8,0.4,1.2c0,0.2,0.1,0.3,0.2,0.5    c0.1,0.4,0.3,0.8,0.5,1.1c0.2,0.4,0.3,0.7,0.5,1.1c0.1,0.2,0.2,0.5,0.4,0.7c0,0.1,0.1,0.2,0.1,0.3c0.2,0.3,0.3,0.6,0.5,0.8    c0.1,0.3,0.3,0.5,0.5,0.7c0.2,0.3,0.4,0.7,0.7,1c0.2,0.2,0.3,0.5,0.5,0.7c0.3,0.3,0.5,0.6,0.8,1c0.2,0.2,0.3,0.4,0.5,0.6    c0.1,0.1,0.1,0.1,0.2,0.2c0.1,0.1,0.1,0.1,0.2,0.2c0.1,0.1,0.1,0.1,0.1,0.1c0.7,0.7,1.4,1.4,2.2,2c0,0,0,0,0,0    c0.4,0.3,0.8,0.6,1.2,0.9c1.5,1.1,3.1,2,4.8,2.7l25,10.7l1.2,0.5l107.7,45.8c12.6,5.4,27.4-0.6,32.7-13.2l10.6-24.9    c5.4-12.6-0.6-27.3-13.2-32.7l-85.9-36.5l128.2-301.3c32.1-6,56.4-34.2,56.4-68C868,164,837,133,798.8,133z M826.1,227.7    c-6.8,7.3-16.5,11.8-27.3,11.8c-20.6,0-37.4-16.8-37.4-37.4c0-0.7,0-1.5,0.1-2.2v0c1.1-19.6,17.4-35.2,37.4-35.2    c20.6,0,37.4,16.8,37.4,37.4C836.3,212,832.4,221,826.1,227.7z" stroke="none" fill="url('#linearGradientSkkpc4777bm')" style=""></path></g></svg></g><g class="svg-clip svg-visible" transform="matrix(0.2533,0,0,0.2533,699.6638,400.201)" style="cursor: move; opacity: 1;"><rect x="0" y="0" width="279" height="559" fill="none" class="svg-hitbox" style=""></rect><svg width="279.14686465675226" height="559.0132347297003" viewBox="127,318.7867652702998,279.14686465675226,559.0132347297003"><desc>Created with Snap</desc><defs></defs><g></g><g></g><g><path d="M392.1,385.2c-1.9-1.6-4-2.9-6.3-3.8l-26-10.8l-0.3-0.1l-108.1-44.8c-12.7-5.3-27.4,0.8-32.6,13.5    l-10.4,25c-5.3,12.7,0.8,27.4,13.5,32.6l86.2,35.8L181.7,737.2c-28.7,8.4-49.7,35-49.7,66.4c0,38.1,31,69.2,69.2,69.2    c38.1,0,69.2-31,69.2-69.2c0-16.2-5.6-31.1-15-42.9l132.5-319.5c0.4-0.7,0.7-1.4,1-2.1l10.4-25C403.5,403.7,400.3,392,392.1,385.2    z M201.2,841c-20.6,0-37.4-16.8-37.4-37.4c0-7.6,2.3-14.6,6.1-20.5c6.7-10.2,18.2-16.9,31.3-16.9c19.3,0,35.2,14.7,37.2,33.5v0    c0.1,1.3,0.2,2.6,0.2,3.9C238.6,824.2,221.8,841,201.2,841z" stroke="none" fill="url('#linearGradientSkkpc4777bp')" style=""></path></g></svg></g><g class="svg-clip svg-visible" transform="matrix(0.2533,0,0,0.2533,746.5809,468.3973)" style="cursor: move; opacity: 1;"><rect x="0" y="0" width="556" height="289" fill="none" class="svg-hitbox" style=""></rect><svg width="556.62992177436" height="289.005611283808" viewBox="312.57007822564003,590.6943887161921,556.62992177436,289.005611283808"><desc>Created with Snap</desc><defs></defs><g></g><g></g><g><path d="M795,736.3c-12.5,0-24.3,3.4-34.5,9.2L435.5,609l-27.1-11.4c-9.7-4-20.6-1.5-27.5,5.6    c-2.1,2.2-3.9,4.7-5.1,7.7L365,636.6L319.5,745c-5.3,12.7,0.7,27.4,13.3,32.7l24.9,10.5c12.7,5.3,27.4-0.7,32.7-13.3l36.2-86.1    l299.9,126c4.5,33.8,33.5,59.9,68.5,59.9c38.1,0,69.2-31,69.2-69.2C864.2,767.4,833.2,736.3,795,736.3z M795,842.9    c-11.3,0-21.4-5-28.2-12.9h0c-5.7-6.6-9.2-15.2-9.2-24.5c0-20.6,16.8-37.4,37.4-37.4c1.9,0,3.7,0.1,5.6,0.4    c18,2.7,31.9,18.3,31.9,37C832.5,826.1,815.7,842.9,795,842.9z" stroke="none" fill="url('#linearGradientSkkpc4777bs')" style=""></path></g></svg></g><g class="svg-text svg-visible" transform="matrix(1.0662,0,0,1.0662,794,563)" style="pointer-events: fill; cursor: move; opacity: 1;"><path fill="none" style="" d="M-251.3,101 C-20,100 20,100 251.3,101"></path><path d="M-213.9-3.6L-213.9-6.6Q-217.70000000000002-1.6 -226-1.6Q-234.3-1.6 -241.55-9.25Q-248.8-16.9 -248.8-27.1Q-248.8-37.3 -241.5-45Q-234.20000000000002-52.7 -225.5-52.7L-225.5-52.7Q-222.10000000000002-52.7 -219.3-51.45Q-216.5-50.2 -215.45000000000002-49.15Q-214.4-48.1 -213.8-47.2L-213.8-47.2Q-213.5-50 -211.75-51.45Q-210-52.9 -206.10000000000002-52.9Q-202.20000000000002-52.9 -200.4-52.3Q-198.60000000000002-51.7 -197.85000000000002-50.25Q-197.10000000000002-48.8 -196.95000000000002-47.7Q-196.8-46.6 -196.8-44.3L-196.8-44.3L-196.8-2.9Q-196.8 8.6 -204.8 15.65Q-212.8 22.7 -222.8 22.7L-222.8 22.7Q-230.4 22.7 -237.3 19Q-244.20000000000002 15.3 -244.20000000000002 12.3L-244.20000000000002 12.3Q-244.20000000000002 8.4 -241.20000000000002 5.4L-241.20000000000002 5.4Q-239.3 3.3 -238.25 2.5Q-237.20000000000002 1.7 -235.8 1.7Q-234.4 1.7 -232.9 2.9L-232.9 2.9Q-228.10000000000002 6.6 -222.5 6.6L-222.5 6.6Q-218.70000000000002 6.6 -216.3 3.6Q-213.9 0.6 -213.9-3.6L-213.9-3.6ZM-231.70000000000002-27.05Q-231.70000000000002-23.8 -229.15-21.2Q-226.60000000000002-18.6 -222.95000000000002-18.6Q-219.3-18.6 -216.9-21.25Q-214.5-23.9 -214.5-27.05Q-214.5-30.2 -216.8-32.95Q-219.10000000000002-35.7 -223-35.7Q-226.9-35.7 -229.3-33Q-231.70000000000002-30.3 -231.70000000000002-27.05ZM-138-32.65Q-138-26.5 -141.05-23.55Q-144.10000000000002-20.6 -147.8-20.6L-147.8-20.6L-171.5-20.6Q-171.5-17.8 -168.20000000000002-15.9Q-164.9-14 -161.60000000000002-14L-161.60000000000002-14Q-155.8-14 -152.5-15.2L-152.5-15.2L-151.4-15.6Q-149-16.7 -147.4-16.7L-147.4-16.7Q-144.20000000000002-16.7 -141.9-12.2L-141.9-12.2Q-140.60000000000002-9.5 -140.60000000000002-7.6L-140.60000000000002-7.6Q-140.60000000000002 1.3 -161.9 1.3L-161.9 1.3Q-169.3 1.3 -175.05-1.25Q-180.8-3.8 -184-8L-184-8Q-190.3-16.1 -190.3-26.1L-190.3-26.1Q-190.3-38.7 -182.15-46.25Q-174-53.8 -161.8-53.8L-161.8-53.8Q-147.9-53.8 -141.4-44L-141.4-44Q-138-38.8 -138-32.65ZM-171.70000000000002-29.7L-159.10000000000002-29.7Q-155.3-29.7 -155.3-32.9L-155.3-32.9Q-155.3-35.2 -157.05-36.6Q-158.8-38 -162.05-38Q-165.3-38 -168.5-35.35Q-171.70000000000002-32.7 -171.70000000000002-29.7L-171.70000000000002-29.7ZM-131.1-4.7L-131.1-4.7Q-133-5.9 -133-8.5Q-133-11.1 -129.2-16.4L-129.2-16.4Q-128.1-18.1 -125.65-18.1Q-123.2-18.1 -119-15.65Q-114.8-13.2 -111.4-13.2L-111.4-13.2Q-105.3-13.2 -105.3-15.6L-105.3-15.6Q-105.3-17.5 -112-18.4L-112-18.4Q-118.3-19.3 -124.5-23.1L-124.5-23.1Q-127.4-24.9 -129.3-28.75Q-131.2-32.6 -131.2-37.9L-131.2-37.9Q-131.2-53.7 -109.5-53.7L-109.5-53.7Q-102.4-53.7 -94.9-50.3L-94.9-50.3Q-91.4-48.7 -91.4-46.3Q-91.4-43.9 -93.6-40.4Q-95.8-36.9 -98.1-36.9L-98.1-36.9Q-99.3-36.9 -102.55-38.4Q-105.8-39.9 -109.6-39.9L-109.6-39.9Q-115.5-39.9 -115.5-37.7L-115.5-37.7Q-115.5-34.7 -108.7-33.8L-108.7-33.8Q-102.1-33.1 -95.9-30L-95.9-30Q-93-28.6 -91.05-25.15Q-89.1-21.7 -89.1-16.5Q-89.1-11.3 -91.05-7.65Q-93-4 -96.5-2.2L-96.5-2.2Q-102.9 0.9 -112.55 0.9Q-122.2 0.9 -131.1-4.7ZM-65.4-45.7L-65.4-45.7Q-60.70000000000001-52.8 -54.10000000000001-52.8L-54.10000000000001-52.8Q-43.900000000000006-52.8 -38.900000000000006-44.1L-38.900000000000006-44.1Q-37.80000000000001-45.6 -36.25000000000001-47.25Q-34.70000000000001-48.9 -31.30000000000001-50.85Q-27.900000000000006-52.8 -24.30000000000001-52.8L-24.30000000000001-52.8Q-16.30000000000001-52.8 -10.900000000000006-46.65Q-5.500000000000014-40.5 -5.500000000000014-26.3L-5.500000000000014-26.3L-5.500000000000014-8.8Q-5.500000000000014-6.5 -5.650000000000006-5.35Q-5.800000000000011-4.2 -6.6000000000000085-2.7L-6.6000000000000085-2.7Q-7.900000000000006 0 -14.300000000000011 0L-14.300000000000011 0Q-20.60000000000001 0 -22.000000000000014-2.8L-22.000000000000014-2.8Q-22.70000000000001-4.3 -22.85000000000001-5.45Q-23.000000000000007-6.6 -23.000000000000007-8.9L-23.000000000000007-8.9L-23.000000000000007-26.4Q-23.000000000000007-35.1 -29.20000000000001-35.1L-29.20000000000001-35.1Q-32.70000000000001-35.1 -33.95000000000001-32.8Q-35.20000000000001-30.5 -35.20000000000001-26.3L-35.20000000000001-26.3L-35.20000000000001-8.8Q-35.20000000000001-6.4 -35.35000000000001-5.3Q-35.50000000000001-4.2 -36.30000000000001-2.7L-36.30000000000001-2.7Q-37.70000000000001 0 -44.10000000000001 0L-44.10000000000001 0Q-50.400000000000006 0 -51.80000000000001-2.8L-51.80000000000001-2.8Q-52.50000000000001-4.3 -52.650000000000006-5.45Q-52.80000000000001-6.6 -52.80000000000001-8.9L-52.80000000000001-8.9L-52.80000000000001-26.4Q-52.80000000000001-35.1 -59.00000000000001-35.1L-59.00000000000001-35.1Q-65-35.1 -65-26.4L-65-26.4L-65-8.7Q-65-6.4 -65.15-5.25Q-65.30000000000001-4.1 -66.10000000000001-2.6L-66.10000000000001-2.6Q-67.60000000000001 0 -73.9 0L-73.9 0Q-80.2 0 -81.60000000000001-2.7L-81.60000000000001-2.7Q-82.30000000000001-4.2 -82.45-5.3Q-82.60000000000001-6.4 -82.60000000000001-8.8L-82.60000000000001-8.8L-82.60000000000001-44Q-82.60000000000001-46.3 -82.45-47.45Q-82.30000000000001-48.6 -81.50000000000001-50L-81.50000000000001-50Q-80.00000000000001-52.7 -74.4-52.7Q-68.80000000000001-52.7 -67.10000000000001-50.9Q-65.4-49.1 -65.4-45.7ZM 36.69999999999999-47.1L 36.69999999999999-47.1Q 37.29999999999998-52.7  44.59999999999998-52.7L 44.59999999999998-52.7Q 48.499999999999986-52.7  50.39999999999998-52.1Q 52.29999999999998-51.5  53.04999999999998-50Q 53.79999999999998-48.5  53.94999999999999-47.35Q 54.09999999999998-46.2  54.09999999999998-43.9L 54.09999999999998-43.9L 54.09999999999998-8.9Q 54.09999999999998-6.6  53.94999999999999-5.45Q 53.79999999999998-4.3  53.09999999999998-2.8L 53.09999999999998-2.8Q 51.69999999999999-0.2  46.249999999999986-0.2Q 40.79999999999998-0.2  38.94999999999999-1.55Q 37.09999999999998-2.9  36.79999999999998-5.5L 36.79999999999998-5.5Q 33.09999999999998-0.2  24.44999999999998-0.2Q 15.799999999999983-0.2  8.399999999999983-8.1Q 0.9999999999999822-16  0.9999999999999822-26.45Q 0.9999999999999822-36.9  8.449999999999982-44.75Q 15.89999999999998-52.6  24.799999999999983-52.6L 24.799999999999983-52.6Q 28.19999999999998-52.6  30.999999999999982-51.4Q 33.79999999999998-50.2  34.89999999999998-49.15Q 35.999999999999986-48.1  36.69999999999999-47.1ZM 18.499999999999982-26.3Q 18.499999999999982-23  21.099999999999984-20.35Q 23.69999999999998-17.7  27.39999999999998-17.7Q 31.099999999999984-17.7  33.54999999999998-20.4Q 35.999999999999986-23.1  35.999999999999986-26.35Q 35.999999999999986-29.6  33.64999999999998-32.4Q 31.29999999999998-35.2  27.349999999999984-35.2Q 23.39999999999998-35.2  20.94999999999998-32.4Q 18.499999999999982-29.6  18.499999999999982-26.3ZM 62.499999999999964-4.7L 62.499999999999964-4.7Q 60.599999999999966-5.9  60.599999999999966-8.5Q 60.599999999999966-11.1  64.39999999999996-16.4L 64.39999999999996-16.4Q 65.49999999999997-18.1  67.94999999999996-18.1Q 70.39999999999996-18.1  74.59999999999997-15.65Q 78.79999999999997-13.2  82.19999999999996-13.2L 82.19999999999996-13.2Q 88.29999999999997-13.2  88.29999999999997-15.6L 88.29999999999997-15.6Q 88.29999999999997-17.5  81.59999999999997-18.4L 81.59999999999997-18.4Q 75.29999999999997-19.3  69.09999999999997-23.1L 69.09999999999997-23.1Q 66.19999999999996-24.9  64.29999999999997-28.75Q 62.39999999999996-32.6  62.39999999999996-37.9L 62.39999999999996-37.9Q 62.39999999999996-53.7  84.09999999999997-53.7L 84.09999999999997-53.7Q 91.19999999999996-53.7  98.69999999999996-50.3L 98.69999999999996-50.3Q 102.19999999999996-48.7  102.19999999999996-46.3Q 102.19999999999996-43.9  99.99999999999997-40.4Q 97.79999999999997-36.9  95.49999999999997-36.9L 95.49999999999997-36.9Q 94.29999999999997-36.9  91.04999999999997-38.4Q 87.79999999999997-39.9  83.99999999999997-39.9L 83.99999999999997-39.9Q 78.09999999999997-39.9  78.09999999999997-37.7L 78.09999999999997-37.7Q 78.09999999999997-34.7  84.89999999999996-33.8L 84.89999999999996-33.8Q 91.49999999999997-33.1  97.69999999999996-30L 97.69999999999996-30Q 100.59999999999997-28.6  102.54999999999997-25.15Q 104.49999999999997-21.7  104.49999999999997-16.5Q 104.49999999999997-11.3  102.54999999999997-7.65Q 100.59999999999997-4  97.09999999999997-2.2L 97.09999999999997-2.2Q 90.69999999999996 0.9  81.04999999999997 0.9Q 71.39999999999996 0.9  62.499999999999964-4.7ZM 139.99999999999997-35L 139.99999999999997-35L 133.49999999999997-35.4L 133.49999999999997-21.6Q 133.49999999999997-18.9  134.34999999999997-17.7Q 135.19999999999996-16.5  137.54999999999995-16.5Q 139.89999999999998-16.5  141.14999999999998-16.35Q 142.39999999999998-16.2  143.79999999999995-15.4L 143.79999999999995-15.4Q 146.09999999999997-14.1  146.09999999999997-8.7L 146.09999999999997-8.7Q 146.09999999999997-2.4  143.29999999999995-1L 143.29999999999995-1Q 141.79999999999995-0.3  140.64999999999998-0.15Q 139.49999999999997 0  137.29999999999995 0L 137.29999999999995 0Q 126.89999999999996 0  121.49999999999997-4.7Q 116.09999999999997-9.4  116.09999999999997-20.6L 116.09999999999997-20.6L 116.09999999999997-35.4Q 114.19999999999996-35.1  111.99999999999996-35.1Q 109.79999999999997-35.1  108.34999999999997-36.8Q 106.89999999999996-38.5  106.89999999999996-42.6Q 106.89999999999996-46.7  107.39999999999996-48.55Q 107.89999999999996-50.4  108.79999999999997-51.2L 108.79999999999997-51.2Q 110.39999999999996-52.5  112.79999999999997-52.5L 112.79999999999997-52.5L 116.09999999999997-52.1L 116.09999999999997-62.4Q 116.09999999999997-64.7  116.24999999999996-65.8Q 116.39999999999996-66.9  117.19999999999996-68.2L 117.19999999999996-68.2Q 118.49999999999996-70.7  124.89999999999996-70.7L 124.89999999999996-70.7Q 131.69999999999996-70.7  132.99999999999997-67L 132.99999999999997-67Q 133.49999999999997-65.4  133.49999999999997-61.9L 133.49999999999997-61.9L 133.49999999999997-52.1Q 137.89999999999998-52.5  140.14999999999998-52.5Q 142.39999999999998-52.5  143.54999999999995-52.35Q 144.69999999999996-52.2  146.19999999999996-51.4L 146.19999999999996-51.4Q 148.79999999999995-50.1  148.79999999999995-43.7L 148.79999999999995-43.7Q 148.79999999999995-37.4  146.09999999999997-36L 146.09999999999997-36Q 144.59999999999997-35.3  143.44999999999996-35.15Q 142.29999999999995-35  139.99999999999997-35ZM 203.09999999999997-32.65Q 203.09999999999997-26.5  200.04999999999995-23.55Q 196.99999999999994-20.6  193.29999999999995-20.6L 193.29999999999995-20.6L 169.59999999999997-20.6Q 169.59999999999997-17.8  172.89999999999995-15.9Q 176.19999999999996-14  179.49999999999994-14L 179.49999999999994-14Q 185.29999999999995-14  188.59999999999997-15.2L 188.59999999999997-15.2L 189.69999999999996-15.6Q 192.09999999999997-16.7  193.69999999999996-16.7L 193.69999999999996-16.7Q 196.89999999999995-16.7  199.19999999999996-12.2L 199.19999999999996-12.2Q 200.49999999999994-9.5  200.49999999999994-7.6L 200.49999999999994-7.6Q 200.49999999999994 1.3  179.19999999999996 1.3L 179.19999999999996 1.3Q 171.79999999999995 1.3  166.04999999999995-1.25Q 160.29999999999995-3.8  157.09999999999997-8L 157.09999999999997-8Q 150.79999999999995-16.1  150.79999999999995-26.1L 150.79999999999995-26.1Q 150.79999999999995-38.7  158.94999999999996-46.25Q 167.09999999999997-53.8  179.29999999999995-53.8L 179.29999999999995-53.8Q 193.19999999999996-53.8  199.69999999999996-44L 199.69999999999996-44Q 203.09999999999997-38.8  203.09999999999997-32.65ZM 169.39999999999995-29.7L 181.99999999999994-29.7Q 185.79999999999995-29.7  185.79999999999995-32.9L 185.79999999999995-32.9Q 185.79999999999995-35.2  184.04999999999995-36.6Q 182.29999999999995-38  179.04999999999995-38Q 175.79999999999995-38  172.59999999999997-35.35Q 169.39999999999995-32.7  169.39999999999995-29.7L 169.39999999999995-29.7ZM 245.39999999999998-52.1Q 247.29999999999995-51.5  248.54999999999995-50.05Q 249.79999999999995-48.6  249.79999999999995-45.4Q 249.79999999999995-42.2  247.89999999999998-38.4Q 245.99999999999997-34.6  242.39999999999998-34.6L 242.39999999999998-34.6Q 240.59999999999997-34.6  238.94999999999996-35.4Q 237.29999999999995-36.2  234.59999999999997-36.2Q 231.89999999999998-36.2  229.54999999999995-34.3Q 227.19999999999996-32.4  227.19999999999996-29.7L 227.19999999999996-29.7L 227.19999999999996-8.7Q 227.19999999999996-6.4  227.04999999999995-5.25Q 226.89999999999998-4.1  226.09999999999997-2.6L 226.09999999999997-2.6Q 224.59999999999997 0  218.29999999999995 0L 218.29999999999995 0Q 213.49999999999997 0  211.39999999999998-1.7L 211.39999999999998-1.7Q 209.79999999999995-3.1  209.59999999999997-6L 209.59999999999997-6Q 209.59999999999997-7  209.59999999999997-8.9L 209.59999999999997-8.9L 209.59999999999997-44Q 209.59999999999997-46.3  209.74999999999997-47.45Q 209.89999999999998-48.6  210.59999999999997-50L 210.59999999999997-50Q 211.99999999999997-52.7  218.39999999999998-52.7L 218.39999999999998-52.7Q 224.39999999999998-52.7  225.89999999999998-50.4L 225.89999999999998-50.4Q 226.99999999999997-48.8  226.99999999999997-47.1L 226.99999999999997-47.1Q 227.49999999999997-47.8  228.44999999999996-48.8Q 229.39999999999998-49.8  232.49999999999997-51.5Q 235.59999999999997-53.2  237.94999999999996-53.2Q 240.29999999999995-53.2  241.89999999999998-52.95Q 243.49999999999997-52.7  245.39999999999998-52.1Z" data-textpath="gesmaster" data-text-anchor="middle" data-font-size="100" data-letterspacing="0" data-side="left" data-offset="0" data-dx="0" data-dy="90.75" data-href="" data-font="Fredoka One" data-font-src="/Content/clientfonts/fredokaone.woff" data-font-scale="contain" transform="translate(0,90.75)" data-xmlspace="preserve" fill="url('#linearGradientSkkpc4777ag')"></path><rect x="0" y="0" width="0" height="0"></rect></g><g><rect x="0" y="0" width="0" height="0" fill="rgba(255,136,0,0.1)" stroke="#ff8800" style="stroke-width: 1;"></rect></g><g class="selector-part"><rect x="0" y="0" width="0" height="0" fill="rgba(168,202,236,0.5)" stroke="#3399ff" style="stroke-width: 1;"></rect></g><g class="selector-part" transform="matrix(1,0,0,1,695,344)"><rect x="0" y="0" width="0" height="0" fill="none" stroke="#2390bb" style="stroke-width: 2;"></rect><g transform="matrix(0.5,0,0,0.5,0,0)"><svg version="1.1" id="Calque_1" xmlns="http://www.w3.org/2000/svg" xmlns:xlink="http://www.w3.org/1999/xlink" x="0" y="-71px" width="28.94px" height="30px" viewBox="0 -15 28.94 30" enable-background="new 0 -15 28.94 30" xml:space="preserve" style="cursor: pointer;">
<g>
	<path fill="rgba(0,0,0,0)" d="M23.355-9.979c-0.352-0.263-0.712-0.511-1.084-0.739L20.34-7.486c0.317,0.195,0.629,0.414,0.929,0.646
		L23.355-9.979z" style=""></path>
	<path fill="rgba(0,0,0,0)" d="M28.894,0.081L25.092-0.13c0.292,2.317-0.217,4.718-1.539,6.756l-0.037-0.021
		c-0.376,0.583-0.821,1.137-1.335,1.648c-3.808,3.809-9.902,3.942-13.871,0.396C8.282,8.623,8.255,8.602,8.227,8.576
		C8.143,8.498,8.059,8.421,7.976,8.339c-0.052-0.051-0.104-0.1-0.153-0.152C7.8,8.163,7.776,8.14,7.753,8.115
		c-0.084-0.091-0.167-0.18-0.25-0.271v0.002C4.312,4.293,4.087-0.98,6.821-4.782l4.123,4.124l3.401-14.306L0.037-11.566l4.102,4.098
		C-0.064-2.14,0.193,5.554,4.917,10.587l0,0c0.012,0.016,0.023,0.025,0.033,0.037c0.091,0.098,0.181,0.199,0.278,0.293
		c0.021,0.023,0.047,0.043,0.07,0.068c0.075,0.074,0.148,0.146,0.225,0.22c0.051,0.045,0.099,0.086,0.15,0.133
		c0.053,0.047,0.104,0.094,0.156,0.14c0.144,0.13,0.291,0.257,0.439,0.375c0.01,0.012,0.018,0.016,0.027,0.023
		c5.574,4.563,13.804,4.115,18.842-1.194C27.94,7.722,29.185,3.851,28.894,0.081z" style=""></path>
	<path fill="rgba(0,0,0,0)" d="M24.122-3.353l3.544-1.319c-0.426-0.932-0.962-1.826-1.611-2.662L22.88-5.276
		C23.373-4.675,23.79-4.027,24.122-3.353z" style=""></path>
</g>
<desc>Created with Snap</desc><defs></defs><circle cx="14.5" cy="0" r="15" style="" fill="rgba(0,0,0,0)"></circle></svg></g><rect x="0" y="-21" width="0" height="21" fill="rgba(255,255,255,0)" stroke="#2390bb" style="stroke-width: 1; cursor: pointer;"></rect><circle cx="198" cy="202" r="0" fill="#ffffff" stroke="#2390bb" style="stroke-width: 2; cursor: se-resize;"></circle><circle cx="0" cy="202" r="0" fill="#ffffff" stroke="#2390bb" style="stroke-width: 2; cursor: sw-resize;"></circle><circle cx="198" cy="0" r="0" fill="#ffffff" stroke="#2390bb" style="stroke-width: 2; cursor: ne-resize;"></circle><circle cx="0" cy="0" r="0" fill="#ffffff" stroke="#2390bb" style="stroke-width: 2; cursor: nw-resize;"></circle><circle cx="99" cy="202" r="0" fill="#ffffff" stroke="#2390bb" style="stroke-width: 2; cursor: s-resize;"></circle><circle cx="99" cy="0" r="0" fill="#ffffff" stroke="#2390bb" style="stroke-width: 2; cursor: n-resize;"></circle><circle cx="0" cy="101" r="0" fill="#ffffff" stroke="#2390bb" style="stroke-width: 2; cursor: w-resize;"></circle><circle cx="198" cy="101" r="0" fill="#ffffff" stroke="#2390bb" style="stroke-width: 2; cursor: e-resize;"></circle><path stroke="#ff0000" fill="none" style="stroke-width: 3;"></path><line x1="0" x2="0" y1="0" y2="0" fill="rgba(255,255,255,0)" stroke="#2390bb" style="stroke-width: 1;"></line><line x1="0" x2="0" y1="0" y2="0" fill="rgba(255,255,255,0)" stroke="#2390bb" style="stroke-width: 1;"></line><circle cx="0" cy="0" r="0" fill="#ff0000" stroke="#2390bb" style="stroke-width: 2; cursor: pointer;"></circle><circle cx="0" cy="0" r="0" fill="#ffa500" stroke="#2390bb" style="stroke-width: 2; cursor: pointer;"></circle><circle cx="0" cy="0" r="0" fill="#ffa500" stroke="#2390bb" style="stroke-width: 2; cursor: pointer;"></circle><circle cx="0" cy="0" r="0" fill="#ff0000" stroke="#2390bb" style="stroke-width: 2; cursor: pointer;"></circle><g style="cursor: pointer; visibility: hidden; opacity: 0;" transform="matrix(1,0,0,1,-50,-15)"><rect x="0" y="0" width="30" height="30" fill="#2390bb" rx="5" ry="5" style=""></rect><rect x="6" y="6" width="18" height="4" style="" fill="#ffffff"></rect><rect x="6" y="13" width="18" height="4" fill="#ffffff" style=""></rect><rect x="6" y="20" width="18" height="4" fill="#ffffff" style=""></rect></g></g></svg>